<svg width="478" height="406" viewBox="0 0 478 406" fill="none" xmlns="http://www.w3.org/2000/svg">
<path d="M251.218 122.258C259.393 122.005 268.772 129.79 273.572 135.987C288.97 155.866 290.711 184.521 285.672 208.398C282.942 221.346 275.326 235.031 264.801 243.156C259.595 246.685 253.233 249.674 246.84 249.825C240.629 249.973 244.985 241.055 245.986 237.695C247.605 232.434 248.657 227.011 249.126 221.526C250.424 206.282 247.063 198.56 243.643 184.82C239.464 168.038 240.226 148.595 245.309 132.132C246.572 128.047 247.215 124.49 251.218 122.258Z" fill="#FEFEFE"/>
<path d="M227.245 122.276C243.489 120.772 231.834 132.812 228.18 138.476C226.762 140.683 225.492 142.981 224.375 145.354C222.008 150.394 221.461 153.434 220.55 158.867C217.341 178.013 226.157 194.885 231.771 212.567C234.063 219.312 235.908 225.654 236.075 232.837C236.431 248.033 232.853 253.053 218.114 246.276C217.319 245.883 216.539 245.464 215.773 245.017C178.202 222.968 182.153 133.611 227.245 122.276Z" fill="#FEFEFE"/>
<path d="M244.251 278.603C252.877 278.402 265.926 278.628 270.432 287.772C275.412 297.874 272.029 305.466 262.565 310.394C275.711 314.768 279.323 329.253 271.14 339.739L270.816 340.063C268.048 342.822 264.772 344.526 260.99 345.486C253.255 347.451 229.72 346.487 220.511 346.433C221.74 341.436 222.466 340.009 227.763 339.295L227.766 285.804C222.564 285.222 221.556 283.477 220.578 278.673C228.433 278.43 236.387 278.729 244.251 278.603ZM263.135 299.388C265.44 282.53 247.343 286.233 237.013 285.845L236.995 339.222C243.99 339.257 257.557 340.838 262.949 335.771C267.453 331.536 266.646 322.772 263.091 317.986C256.66 311.96 240.949 316.333 239.471 314.133C240.803 305.347 248.453 308.218 254.755 307.069C258.865 306.323 262.539 303.737 263.135 299.388Z" fill="#FEFEFE"/>
<path d="M425.32 278.556L428.448 278.515C435.72 291.129 444.796 304.122 452.279 316.73C455.196 321.649 458.669 326.551 461.378 331.59C461.195 326.703 461.35 320.852 461.353 315.905L461.35 285.864C456.169 284.885 454.906 283.544 453.542 278.609C461.324 278.382 469.988 278.559 477.827 278.612C477.172 283.821 475.764 284.916 470.64 285.735C470.417 305.828 470.625 326.322 470.637 346.446L461.265 346.475L459.898 344.085L439.568 311.506C436.016 305.806 431.717 299.253 428.492 293.444L428.454 339.282C433.625 339.887 434.951 341.767 436.296 346.437C428.016 346.509 419.736 346.503 411.457 346.415C412.575 341.301 414.373 340.13 419.273 339.166C419.003 321.576 419.201 303.486 419.188 285.864C414.061 284.828 412.72 283.603 411.457 278.631C415.945 278.493 420.804 278.568 425.32 278.556Z" fill="#FEFEFE"/>
<path d="M135.614 278.42L188.125 278.442C188.181 283.984 188.152 289.53 188.038 295.069C182.175 293.702 180.073 291.535 179.312 285.622C170.421 285.688 161.529 285.694 152.637 285.638L152.625 307.68C161.337 307.636 170.049 307.642 178.761 307.705C177.753 313.572 174.238 315.105 168.618 315.07C163.304 315.039 157.968 314.982 152.652 314.922C152.548 318.997 152.617 323.346 152.611 327.443L152.617 339.245H179.896C180.623 333.359 182.84 331.165 188.535 330.003C188.736 335.211 188.6 341.178 188.603 346.44C177.15 346.635 165.414 346.374 153.938 346.494C151.229 346.522 137.662 346.66 136.106 346.188L135.794 345.467C136.263 341.31 139.858 339.774 143.439 339.286L143.396 285.71C138.316 284.765 136.704 283.474 135.614 278.42Z" fill="#FEFEFE"/>
<path d="M280.551 278.436C297.816 278.216 315.793 278.354 333.074 278.442L333.036 295.069C327.049 293.633 325.175 291.684 324.259 285.634C315.431 285.748 306.439 285.657 297.599 285.65C297.536 292.993 297.523 300.34 297.564 307.686C306.172 307.658 315.352 307.485 323.909 307.746C322.136 314.173 319.021 315.146 312.625 315.067C307.639 315.008 302.581 314.979 297.59 314.941C297.47 319.255 297.558 323.963 297.552 328.309L297.536 339.226L324.845 339.254C325.739 333.394 327.676 331.064 333.55 330.05C333.676 335.394 333.584 341.077 333.59 346.446C316.65 346.704 297.344 346.739 280.441 346.402C281.946 341.232 283.291 340.218 288.409 339.138C288.17 321.497 288.368 303.423 288.368 285.751C283.26 284.734 281.72 283.465 280.551 278.436Z" fill="#FEFEFE"/>
<path d="M369.349 278.682L377.377 278.71C379.521 285.187 383.005 293.63 385.486 300.167L400.616 339.821C404.597 341.2 405.221 342.513 405.734 346.453C399.108 346.516 392.484 346.5 385.861 346.399C386.576 342.287 387.077 341.09 391.143 339.591C389.883 335.434 388.123 331.533 386.897 327.247C378.882 327.106 370.615 327.222 362.552 327.159C367.305 317.694 374.731 319.558 383.852 319.599C382.901 316.349 381.216 312.054 380.035 308.785C377.963 302.695 375.519 296.284 373.32 290.204C367.088 305.762 360.953 323.717 355.069 339.553L355.34 339.654C357.809 340.599 361.148 343.238 359.989 346.238C357.45 346.667 343.379 346.55 340.844 346.27C339.524 343.411 343.303 340.64 345.69 339.818C348.667 333.158 352.219 323.157 354.918 316.195C359.718 303.81 364.798 291.107 369.349 278.682Z" fill="#FEFEFE"/>
<path d="M9.65688 278.556C16.3336 278.571 52.7787 277.712 56.0928 279.396C57.3129 281.755 56.7513 290.758 56.6789 293.825C51.8376 292.644 49.086 291.104 48.2019 285.804C43.195 285.83 38.1884 285.826 33.1814 285.786L33.1714 339.301C35.5961 339.528 36.4773 339.903 38.4671 341.276C40.0928 343.09 40.2953 344.157 40.9073 346.44C32.6319 346.503 24.3558 346.497 16.0804 346.421C17.2892 341.354 18.9313 340.136 23.8715 339.232L23.8441 285.779C19.2922 285.965 13.7495 285.76 9.07959 285.754C7.3027 291.249 5.70248 292.439 0.326746 293.853C0.287693 290.701 -0.773972 281.73 1.15253 279.579C2.41355 278.168 7.58331 278.524 9.65688 278.556Z" fill="#FEFEFE"/>
<path d="M104.364 278.751C111.74 278.707 121.962 278.389 129.203 278.789C127.873 283.613 126.529 285.168 121.368 285.896L121.382 339.314C126.374 339.931 127.956 341.597 129.193 346.427C121.401 346.497 112.031 346.711 104.33 346.402C105.693 341.613 107.061 339.931 112.265 339.264L112.22 316.535C101.502 316.585 90.783 316.576 80.0649 316.503C80.3682 315.53 80.6702 313.515 80.8749 312.444C82.3983 310.454 83.6974 309.519 86.2724 309.402C94.8224 309.025 103.69 309.494 112.221 309.33L112.243 286.034C107.301 284.923 105.595 283.956 104.364 278.751Z" fill="#FEFEFE"/>
<path d="M62.2644 278.751C68.3658 278.606 74.5188 278.748 80.6248 278.675C82.5747 278.65 84.6022 278.6 86.5297 278.858L86.8462 279.422C86.6969 280.7 86.227 281.925 85.4797 282.974C83.9881 285.112 81.6449 285.524 79.2993 285.852L79.3465 308.08C80.2797 309.535 79.007 311.26 79.9411 312.794L80.8749 312.444C80.6702 313.515 80.3682 315.53 80.0649 316.503L79.6737 316.809C79.6602 317.892 79.8104 320.735 79.3437 321.456L79.293 339.333C84.2675 339.862 86.05 341.691 87.0638 346.434C79.0826 346.645 70.2796 346.493 62.2531 346.427C63.7402 341.31 65.1345 340.177 70.1962 339.179C69.96 321.554 70.136 303.586 70.142 285.937C64.8942 285.134 63.744 283.613 62.2644 278.751Z" fill="#FEFEFE"/>
<path d="M79.3465 308.08C80.2796 309.535 79.007 311.26 79.9411 312.794L80.8749 312.444C80.6702 313.515 80.3681 315.53 80.0648 316.503L79.6737 316.809C79.6601 317.892 79.8104 320.735 79.3436 321.456C79.3058 316.998 79.3068 312.539 79.3465 308.08Z" fill="#241F1E"/>
<path d="M282.4 372.96C294.116 372.151 293.127 381.233 292.973 389.725C292.844 396.687 294.459 402.358 286.283 404.997C274.98 405.756 275.333 398.057 275.563 389.372C275.751 382.347 273.733 375.491 282.4 372.96ZM283.928 377.305C279.415 379.163 280.91 385.644 280.794 390.091C280.684 394.307 279.673 399.808 284.579 400.683C285.433 400.356 287.067 399.732 287.237 398.724C287.801 395.38 287.924 391.076 287.707 387.65C287.436 383.424 289.178 378.241 283.928 377.305Z" fill="#FEFEFE"/>
<path d="M320.052 373.271C327.484 373.089 337.94 371.921 336.794 383.194C336.539 385.704 335.421 386.904 333.459 388.361C337.417 392.039 338.069 395.431 336.39 400.494C332.532 406.131 326.205 404.862 320.095 404.786C319.859 394.508 320.042 383.594 320.052 373.271ZM325.317 390.402L325.311 400.258C327.323 400.239 328.917 400.387 330.709 399.389C332.39 396.58 332.954 392.912 329.78 391.041C328.382 390.219 326.876 390.39 325.317 390.402ZM325.427 377.684C325.254 380.801 325.283 383.506 325.324 386.61C327.245 386.541 328.945 386.657 330.608 385.656C333.719 380.442 330.8 377.769 325.427 377.684Z" fill="#FEFEFE"/>
<path d="M169.601 373.272C177.519 373.092 188.199 371.597 186.468 384.602C186.111 387.284 184.565 388.981 182.362 390.458C183.76 394.174 185.922 400.941 186.952 404.717L181.703 404.827L180.714 401.757C180.07 399.543 178.199 391.067 175.891 390.915C174.295 392.729 174.772 401.737 174.747 404.764L169.614 404.774C169.328 394.87 169.497 383.206 169.601 373.272ZM174.996 377.731C174.622 380.165 174.79 384.57 174.833 387.193C176.978 387.146 178.442 387.328 180.27 386.201C183.497 380.795 180.707 377.743 174.996 377.731Z" fill="#FEFEFE"/>
<path d="M374.372 373.268C382.198 373.114 392.85 371.525 391.213 384.605C390.885 387.206 389.338 388.981 387.149 390.367C388.551 395.087 390.239 400.016 391.728 404.752L386.315 404.786L385.216 400.967C384.513 398.775 383.175 392.577 381.886 391.293C380.58 391.245 381.099 391.038 380.199 391.709C379.078 393.888 379.56 401.615 379.553 404.758L374.372 404.777C374.117 394.764 374.268 383.304 374.372 373.268ZM379.651 377.75C379.604 380.88 379.584 384.013 379.588 387.143C382.063 387.146 383.156 387.423 385.149 386.009C387.936 380.379 385.395 377.693 379.651 377.75Z" fill="#FEFEFE"/>
<path d="M357.624 373.237C359.413 383.068 362.323 394.87 364.483 404.771L359.085 404.773C358.877 403.492 358.549 400.098 357.866 399.352L351.174 399.339C350.796 400.954 350.49 403.099 350.21 404.783L344.922 404.776C347.177 394.328 349.687 383.689 351.765 373.234L357.624 373.237ZM354.439 380.877C353.806 384.363 352.336 391.46 352.156 394.71C352.937 395.437 354.355 395.261 355.492 395.235L356.846 395.157C357.29 394.597 357.243 394.851 357.161 394.275C356.855 392.188 355.227 382.118 354.439 380.877Z" fill="#FEFEFE"/>
<path d="M142.017 373.24C145.667 373.155 152.564 372.403 155.557 374.588C159.646 377.573 160.329 384.768 157.264 388.742C154.523 392.294 151.252 391.073 147.505 391.596L147.293 392.329L147.258 404.732L142.075 404.78C141.604 395.419 141.987 382.879 142.017 373.24ZM147.342 377.633C147.291 380.895 147.273 384.157 147.288 387.423C149.308 387.382 150.995 387.555 152.684 386.419C154.489 383.428 154.797 379.734 151.152 378.049C150.229 377.621 148.386 377.664 147.342 377.633Z" fill="#FEFEFE"/>
<path d="M255.224 372.948C257.428 372.765 259.416 372.853 261.293 374.113C263.755 375.769 267.081 379.834 264.877 382.734C263.711 383.153 261.523 382.999 260.197 382.983C260.064 380.458 259.104 376.251 255.535 377.501C250.956 381.072 257.013 386.365 260.143 388.248C267.343 392.587 267.869 402.009 259.142 405.016C251.825 405.498 248.925 402.532 248.689 395.311L253.898 395.264C254.121 397.701 254.786 401.215 258.08 400.598C265.976 394.958 251.529 390.644 249.104 383.78C248.311 381.487 248.506 378.971 249.643 376.83C250.837 374.604 252.899 373.574 255.224 372.948Z" fill="#FEFEFE"/>
<path d="M121.049 372.976C128.653 372.475 131.116 375.715 131.437 382.942L126.298 382.983C126.172 380.552 125.136 376.383 121.841 377.284C114.686 383.836 129.872 388.324 131.152 393.913C132.429 399.49 130.78 403.067 125.351 404.978C117.937 405.589 115.052 402.588 114.792 395.314C116.508 395.264 118.33 395.28 120.056 395.264C120.17 397.758 121.3 401.71 124.563 400.68C128.248 397.298 125.557 393.164 122.15 391.419C114.613 387.562 110.537 376.336 121.049 372.976Z" fill="#FEFEFE"/>
<path d="M228.517 372.97C236.066 372.472 238.614 375.756 238.894 382.958L233.741 382.986C233.593 380.426 232.589 376.282 229.106 377.4C222.523 384.318 237.25 388.147 238.636 393.888C239.949 399.329 238.151 403.067 232.803 404.994C225.33 405.523 222.571 402.639 222.225 395.33C223.811 395.245 225.832 395.28 227.455 395.27C227.674 399.288 230.801 403.69 233.477 398.394C235.061 395.264 230.761 391.97 228.338 390.49C221.046 386.044 219.058 376.106 228.517 372.97Z" fill="#FEFEFE"/>
<path d="M197.352 373.266C202.499 373.14 207.856 373.231 213.02 373.25L213.014 377.791L202.595 377.803C202.519 380.773 202.51 383.739 202.569 386.708L209.019 386.721L209.003 391.299L202.59 391.249L202.506 398.381C202.517 399.096 202.554 399.128 202.758 399.823C204.307 400.661 210.74 400.277 213.028 400.271L213.021 404.77L197.334 404.78C197.101 394.782 197.202 383.276 197.352 373.266Z" fill="#FEFEFE"/>
<path d="M89.3503 373.266C94.5821 373.19 99.8148 373.19 105.047 373.269L105.016 377.8C101.548 377.816 98.0792 377.787 94.6117 377.715C94.5367 380.688 94.5827 383.739 94.5915 386.718L101.053 386.711C101.101 388.188 101.051 389.804 101.036 391.29L94.5931 391.255L94.5427 398.451C94.5748 399.244 94.5629 399.071 94.7625 399.839C96.2711 400.639 102.79 400.28 105.029 400.277L105.015 404.77L89.3402 404.774C89.1222 394.65 89.2378 383.399 89.3503 373.266Z" fill="#FEFEFE"/>
<path d="M269.097 48.7939C271.21 48.8465 273.956 50.1759 273.32 52.3078C271.808 57.375 267.047 78.4053 263.954 81.0529C260.691 80.9767 258.657 80.1706 259.636 76.2663C261.403 69.3456 263.582 62.5005 265.601 55.645C266.341 53.1303 266.873 50.3032 269.097 48.7939Z" fill="#E29C29"/>
<path d="M135.005 100.76C138.637 100.91 149.173 109.619 152.978 112.309C156.91 115.088 164.348 118.677 158.547 123.249C157.977 123.26 157.029 123.281 156.503 122.927C148.823 117.744 141.076 112.278 133.86 106.467C131.324 104.425 133.208 102.234 135.005 100.76Z" fill="#E29C29"/>
<path d="M114.399 141.072C120.052 141.174 137.797 146.65 143.742 148.678C145.875 149.405 144.079 152.889 142.429 154.23C138.346 154.154 131.179 151.592 126.95 150.755C123.102 149.995 118.414 148.716 114.652 147.575C111.182 146.523 111.543 143.125 114.399 141.072Z" fill="#E29C29"/>
<path d="M141.119 192.174C144.357 191.887 146.266 194.333 144.925 196.96C143.829 199.106 135.949 200.08 133.774 200.504L117.089 203.748C111.613 204.392 111.132 198.556 115.602 197.356C118.79 196.501 122.156 195.927 125.411 195.304L141.119 192.174Z" fill="#E29C29"/>
<path d="M362.779 146.545C363.409 146.531 363.787 146.576 364.37 146.844C365.239 147.244 365.976 148.204 366.168 149.133C366.344 150.007 366.152 151.051 365.595 151.761C363.929 153.88 341.055 158.363 337.25 159.244C332.542 158.568 332.803 153.677 336.233 152.773C344.825 150.509 354.103 148.29 362.779 146.545Z" fill="#E29C29"/>
<path d="M345.039 105.759C345.505 105.758 345.993 105.753 346.453 105.84C347.388 106.018 348.229 106.69 348.701 107.502C349.174 108.306 349.281 109.303 348.897 110.169C347.813 112.626 327.191 124.381 323.544 126.204C319.922 126.247 318.272 122.347 321.352 120.105C324.086 118.118 326.945 116.499 329.836 114.766C334.879 111.723 339.946 108.72 345.039 105.759Z" fill="#E29C29"/>
<path d="M171.815 62.9596C173.148 63.0311 174.358 63.3113 175.138 64.5467C180.041 72.3081 185.107 80.1706 189.504 88.2186C190.433 89.9187 188.605 91.5297 187.292 92.4252C184.016 92.4073 183.679 91.0117 182.064 88.4261L174.107 75.4797C172.523 72.8806 170.824 70.2638 169.533 67.5117C168.443 65.1906 170.073 64.0362 171.815 62.9596Z" fill="#E29C29"/>
<path d="M310.367 69.2688C312.348 69.242 316.061 70.6641 314.981 72.5288C311.469 78.582 301.926 92.8724 297.079 97.267C296.799 97.2837 296.519 97.3058 296.242 97.302C295.111 97.2875 293.886 96.766 293.136 95.9057C292.68 95.3796 292.478 94.6465 292.538 93.9563C292.755 91.5703 307.876 71.6169 310.367 69.2688Z" fill="#E29C29"/>
<path d="M333.121 195.531C338.617 195.291 356.395 201.359 362.493 203.091C364.685 203.713 363.038 206.84 361.655 208.184C356.972 208.538 337.496 203.221 332.117 201.092C330.038 200.269 331.487 197.021 333.121 195.531Z" fill="#E29C29"/>
<path d="M218.411 48.2195C218.524 48.2224 218.637 48.2208 218.749 48.228C219.686 48.2869 220.61 48.3924 221.208 49.2051C222.144 50.4767 225.46 76.8369 225.049 78.8619C224.768 80.243 223.716 80.8228 222.625 81.5448C221.552 81.325 220.551 81.0999 219.812 80.2125C218.884 79.0997 215.377 52.4841 215.971 50.5948C216.369 49.332 217.339 48.8458 218.411 48.2195Z" fill="#E29C29"/>
<path d="M424.029 381.273C424.968 381.934 432.17 389.268 433.578 390.657C430.422 393.73 427.276 396.927 424.152 400.041C423.084 399.291 416.092 392.09 414.694 390.673L424.029 381.273Z" fill="#FEFEFE"/>
<path d="M55.3586 381.317C56.5976 382.013 63.3323 389.12 64.855 390.644L55.5583 400.038C54.433 399.477 47.4145 392.08 46.0449 390.682C49.0733 387.549 52.2772 384.413 55.3586 381.317Z" fill="#FEFEFE"/>
<path d="M192.22 97.0293C196.462 96.9383 198.133 101.892 200.278 105.29C202.593 108.956 205.627 112.057 201.18 115.109C200.073 115.168 198.892 115.076 198.133 114.108C195.097 110.236 192.152 105.577 190.201 101.067C189.426 99.2754 190.994 98.0133 192.22 97.0293Z" fill="#E29C29"/>
<path d="M307.951 188.637C310.093 188.903 312.464 189.662 314.577 190.144C318.429 191.02 329.959 193.22 322.552 198.89C318.713 198.479 298.27 195.187 307.951 188.637Z" fill="#E29C29"/>
<path d="M167.061 124.372C169.533 124.204 172.031 125.971 173.938 127.511C177.229 130.168 186.288 134.359 180.108 138.813C177.038 139.041 170.349 133.345 167.683 131.412C164.847 129.355 164.087 126.826 167.061 124.372Z" fill="#E29C29"/>
<path d="M287.244 101.142C295.149 102.191 288.4 109.893 286.044 113C284.538 114.982 282.737 117.777 280.542 118.875C271.405 116.901 281.688 108.55 283.732 104.705C284.34 103.559 286.141 101.795 287.244 101.142Z" fill="#E29C29"/>
<path d="M310.956 126.265C312.433 126.277 314.045 126.899 314.631 128.276C316.464 132.576 303.778 138.33 300.77 139.905C298.594 139.94 296.26 138.049 296.963 136.227C298.374 132.578 307.869 128.028 310.956 126.265Z" fill="#E29C29"/>
<path d="M153.352 150.549C155.721 150.663 159.439 151.939 161.881 152.405C165.971 153.186 174.622 155.416 168.18 160.576C165.009 160.478 161.755 159.174 158.676 158.663C154.473 157.966 146.776 155.233 153.352 150.549Z" fill="#E29C29"/>
<path d="M166.557 187.161C172.311 186.239 173.784 192.28 167.66 193.684C164.086 194.503 160.529 195.18 156.933 195.877C156.335 195.963 154.293 196.211 153.949 195.974C144.69 189.581 164.108 187.61 166.557 187.161Z" fill="#E29C29"/>
<path d="M257.135 87.2661C264.845 86.374 261.17 94.472 260.02 98.6403C259.371 100.992 258.36 104.548 256.72 106.281C247.958 107.72 254.077 95.7165 254.946 91.7709C255.283 90.255 256.124 88.4258 257.135 87.2661Z" fill="#E29C29"/>
<path d="M323.462 155.627C328.038 155.284 329.484 161.069 323.317 162.524C319.68 163.382 315.733 164.249 312.039 165.017C306.569 165.418 306.225 159.686 311.642 158.319C315.573 157.328 319.5 156.484 323.462 155.627Z" fill="#E29C29"/>
<path d="M211.776 0.0225595C213.016 -0.0130232 214.938 -0.159452 215.7 1.19332C216.753 3.23004 216.909 5.9592 217.198 8.25633C217.567 11.1861 218.007 14.3615 217.899 17.3085C217.859 18.3946 216.743 19.0395 215.941 19.6349C213.474 19.8273 212.196 19.2785 211.547 16.6145C210.496 12.3074 210.096 7.47131 210.033 3.03796C210.013 1.60268 210.783 0.898902 211.776 0.0225595Z" fill="#E29C29"/>
<path d="M222.439 87.8074C223.992 87.8404 226.044 88.1062 226.452 89.9225C227.552 94.8171 228.209 100.237 228.361 105.252C228.386 106.084 227.033 107.051 226.429 107.529C220.959 108.313 221.505 101.765 221.181 97.9081C220.89 94.449 219.941 90.3866 222.439 87.8074Z" fill="#E29C29"/>
<path d="M146.963 23.6331C148.04 23.539 149.269 23.3293 150.217 24.3306C152.785 27.0434 156.66 32.8317 157.14 36.5144C157.294 37.7053 156.139 38.661 155.369 39.2974C155.113 39.3355 154.857 39.3682 154.6 39.3953C153.71 39.4835 152.856 39.4687 152.077 38.6251C149.458 35.7889 145.73 30.3441 145.222 26.516C145.059 25.292 146.179 24.3316 146.963 23.6331Z" fill="#E29C29"/>
<path d="M336.012 34.6383C345.681 34.2065 336.863 44.7938 333.978 47.318C324.092 47.7138 333.194 37.2893 336.012 34.6383Z" fill="#E29C29"/>
<path d="M281.294 7.60546C287.833 7.8684 284.891 15.1903 283.335 18.8534C282.668 20.419 282.394 20.7629 280.888 21.5885C274.854 20.8259 277.074 15.6601 278.51 11.569C279.175 9.67052 279.625 8.77245 281.294 7.60546Z" fill="#E29C29"/>
<path d="M92.8978 135.731C97.0141 135.694 108.265 138.186 101.601 144.096C97.3747 144.144 85.5851 141.584 92.8978 135.731Z" fill="#E29C29"/>
<path d="M384.246 141.477C384.844 141.429 385.442 141.544 385.978 141.811C387.663 142.66 388.56 145.158 387.313 146.64C385.625 148.638 381.046 149.08 378.492 149.559C375.629 149.647 373.853 147.13 375.078 144.794C376.152 142.752 382.126 141.929 384.246 141.477Z" fill="#E29C29"/>
<path d="M159.793 44.1599C164.223 44.0406 166.961 49.6425 167.526 53.5254C167.699 54.7142 166.389 55.7668 165.56 56.4637C161.164 56.6255 158.178 50.7339 157.796 46.8982C157.684 45.7756 158.997 44.7812 159.793 44.1599Z" fill="#E29C29"/>
<path d="M364.414 94.1997C365.431 94.3288 367.648 95.0851 368.023 96.0931C369.453 99.9326 362.017 103.362 359.353 104.581C358.244 104.351 356.506 103.665 355.976 102.696C353.995 99.0735 362.411 95.2457 364.414 94.1997Z" fill="#E29C29"/>
<path d="M323.966 51.273C332.542 51.7463 325.065 61.4821 321.67 63.5116C313.025 62.9206 320.81 53.4996 323.966 51.273Z" fill="#E29C29"/>
<path d="M216.249 26.1828C220.89 27.0862 220.878 33.7887 220.128 37.5072C219.889 38.69 218.632 39.2325 217.635 39.737C212.626 38.6254 212.744 32.3625 213.597 28.1603C213.816 27.0787 215.291 26.5185 216.249 26.1828Z" fill="#E29C29"/>
<path d="M116.878 87.8508C119.953 87.5123 126.196 91.701 126.657 95.1396C126.817 96.3387 125.748 97.4484 124.928 98.2564C121.439 98.6547 110.852 92.8617 116.878 87.8508Z" fill="#E29C29"/>
<path d="M275.997 27.4483C281.181 28.3407 279.528 33.3636 278.164 36.9741C277.433 38.9085 276.91 39.9524 274.923 40.7412C273.626 40.4981 271.969 40.0664 271.632 38.5911C270.867 35.2331 272.492 28.7413 275.997 27.4483Z" fill="#E29C29"/>
<path d="M374.224 205.724C378.252 206.065 390.585 208.063 382.702 213.973C379.544 213.498 374.571 212.83 372.278 210.388C370.65 208.651 372.687 206.629 374.224 205.724Z" fill="#E29C29"/>
<path d="M100.14 200.4C103.048 200.098 104.856 202.933 103.692 205.2C102.955 206.633 96.8031 207.376 95.2369 207.669C92.9264 207.818 91.2349 207.078 90.6964 204.675C91.2062 201.231 97.2862 200.874 100.14 200.4Z" fill="#E29C29"/>
<path d="M103.802 78.4C107.918 78.0505 113.532 82.4722 108.525 86.6769C104.119 86.778 98.8848 82.5235 103.802 78.4Z" fill="#E29C29"/>
<path d="M377.345 86.3233C378.687 86.3478 380.756 86.7141 381.229 88.0454C382.34 91.1968 379.118 93.0531 377.15 94.0992C376.048 94.2469 373.821 93.8564 373.383 92.8258C371.9 89.3254 375.223 87.4244 377.345 86.3233Z" fill="#E29C29"/>
</svg>
