<svg width="425" height="425" viewBox="0 0 425 425" fill="none" xmlns="http://www.w3.org/2000/svg">
<path d="M228.13 149.913C236.306 149.659 245.685 157.445 250.484 163.641C265.882 183.521 267.623 212.176 262.584 236.053C259.854 249.001 252.238 262.686 241.713 270.81C236.507 274.34 230.145 277.329 223.752 277.48C217.541 277.628 221.897 268.71 222.899 265.35C224.517 260.088 225.569 254.666 226.038 249.18C227.336 233.937 223.976 226.215 220.555 212.475C216.376 195.693 217.138 176.25 222.221 159.787C223.484 155.702 224.127 152.144 228.13 149.913Z" fill="#241F1E"/>
<path d="M204.157 149.93C220.401 148.427 208.746 160.466 205.092 166.131C203.674 168.338 202.404 170.636 201.287 173.009C198.92 178.049 198.373 181.088 197.462 186.522C194.253 205.668 203.069 222.54 208.683 240.222C210.975 246.967 212.82 253.309 212.987 260.491C213.343 275.688 209.765 280.707 195.026 273.931C194.232 273.537 193.451 273.119 192.685 272.671C155.115 250.623 159.065 161.266 204.157 149.93Z" fill="#241F1E"/>
<path d="M239.16 402.186C241.074 401.917 242.844 403.25 243.114 405.164L245.33 420.903C245.599 422.817 244.265 424.587 242.351 424.857C240.437 425.126 238.666 423.792 238.397 421.878L236.182 406.14C235.913 404.226 237.246 402.455 239.16 402.186ZM160.251 400.479C160.735 398.608 162.645 397.483 164.516 397.966C166.387 398.45 167.512 400.359 167.029 402.231L163.053 417.62C162.569 419.491 160.66 420.616 158.788 420.132C156.917 419.649 155.792 417.739 156.276 415.868L160.251 400.479ZM309.737 377.52C311.402 376.539 313.548 377.093 314.53 378.758L322.599 392.452C323.58 394.117 323.026 396.262 321.361 397.244C319.696 398.225 317.55 397.67 316.569 396.005L308.498 382.313C307.517 380.648 308.072 378.501 309.737 377.52ZM235.722 377.764C237.636 377.495 239.407 378.828 239.676 380.742L241.051 390.511C241.32 392.425 239.987 394.195 238.073 394.464C236.159 394.734 234.389 393.401 234.12 391.487L232.745 381.718C232.475 379.804 233.808 378.034 235.722 377.764ZM166.421 376.601C166.905 374.729 168.814 373.604 170.686 374.087C172.557 374.571 173.682 376.481 173.199 378.352L170.731 387.904C170.247 389.775 168.338 390.9 166.466 390.416C164.595 389.933 163.47 388.023 163.954 386.152L166.421 376.601ZM92.267 366.192C93.43 364.648 95.6245 364.34 97.1684 365.502C98.7123 366.665 99.0216 368.86 97.8588 370.404L88.2963 383.099C87.1334 384.643 84.9389 384.952 83.395 383.789C81.851 382.627 81.5418 380.432 82.7045 378.888L92.267 366.192ZM229.534 333.804C231.448 333.535 233.218 334.868 233.488 336.782L237.842 367.717C238.111 369.631 236.778 371.401 234.865 371.67C232.951 371.94 231.18 370.607 230.911 368.693L226.556 337.757C226.287 335.843 227.62 334.074 229.534 333.804ZM297.215 356.273C298.881 355.292 301.026 355.846 302.007 357.511L307.016 366.01C307.997 367.675 307.443 369.821 305.778 370.802C304.113 371.783 301.967 371.229 300.986 369.564L295.977 361.065C294.996 359.4 295.55 357.254 297.215 356.273ZM177.527 333.619C178.01 331.747 179.92 330.622 181.791 331.106C183.663 331.589 184.788 333.498 184.305 335.37L176.49 365.617C176.006 367.488 174.096 368.613 172.225 368.129C170.354 367.646 169.229 365.737 169.712 363.866L177.527 333.619ZM107.106 346.493C108.269 344.949 110.463 344.639 112.007 345.802C113.551 346.965 113.86 349.16 112.697 350.704L106.761 358.583C105.598 360.127 103.404 360.437 101.86 359.274C100.316 358.111 100.007 355.916 101.17 354.372L107.106 346.493ZM274.675 318.027C276.341 317.045 278.486 317.6 279.467 319.265L295.329 346.178C296.31 347.843 295.756 349.99 294.09 350.971C292.425 351.952 290.28 351.398 289.298 349.733L273.437 322.819C272.456 321.153 273.01 319.008 274.675 318.027ZM365.502 327.723C366.665 326.179 368.86 325.87 370.404 327.033L383.099 336.595C384.643 337.758 384.952 339.952 383.789 341.496C382.627 343.04 380.432 343.35 378.888 342.187L366.193 332.624C364.649 331.462 364.34 329.267 365.502 327.723ZM133.814 311.033C134.977 309.489 137.171 309.18 138.715 310.342C140.259 311.505 140.569 313.7 139.406 315.244L120.611 340.197C119.448 341.741 117.253 342.05 115.709 340.887C114.165 339.724 113.856 337.53 115.019 335.986L133.814 311.033ZM224.721 299.613C226.635 299.343 228.406 300.677 228.675 302.591L231.501 322.671C231.771 324.585 230.438 326.356 228.524 326.625C226.61 326.895 224.839 325.561 224.57 323.647L221.744 303.567C221.474 301.653 222.807 299.882 224.721 299.613ZM345.802 312.884C346.965 311.34 349.16 311.032 350.704 312.195L358.583 318.13C360.127 319.293 360.437 321.488 359.274 323.032C358.111 324.575 355.916 324.884 354.372 323.721L346.493 317.786C344.949 316.623 344.639 314.428 345.802 312.884ZM186.165 300.188C186.649 298.317 188.558 297.192 190.429 297.675C192.301 298.159 193.426 300.068 192.943 301.94L187.87 321.574C187.386 323.445 185.476 324.57 183.605 324.086C181.734 323.603 180.609 321.693 181.092 319.822L186.165 300.188ZM42.5785 308.498C44.2438 307.517 46.3901 308.071 47.3715 309.737C48.3529 311.402 47.7985 313.548 46.1332 314.53L32.4399 322.599C30.7746 323.58 28.6293 323.026 27.6479 321.361C26.6664 319.695 27.2208 317.55 28.8862 316.569L42.5785 308.498ZM257.144 288.28C258.809 287.298 260.956 287.853 261.937 289.518L272.233 306.989C273.214 308.654 272.66 310.799 270.995 311.781C269.329 312.762 267.183 312.208 266.202 310.542L255.906 293.073C254.924 291.407 255.479 289.261 257.144 288.28ZM310.342 286.175C311.505 284.631 313.7 284.323 315.244 285.486L340.197 304.281C341.741 305.444 342.05 307.638 340.887 309.182C339.724 310.726 337.53 311.035 335.986 309.872L311.033 291.077C309.489 289.914 309.179 287.719 310.342 286.175ZM63.8266 295.977C65.4919 294.996 67.6372 295.55 68.6186 297.215C69.5999 298.881 69.0456 301.026 67.3803 302.007L58.8813 307.016C57.216 307.997 55.0707 307.443 54.0893 305.778C53.1079 304.112 53.6623 301.967 55.3276 300.986L63.8266 295.977ZM154.588 283.453C155.751 281.909 157.946 281.599 159.49 282.762C161.033 283.925 161.342 286.12 160.179 287.663L147.979 303.862C146.816 305.406 144.622 305.714 143.078 304.551C141.534 303.388 141.224 301.194 142.387 299.65L154.588 283.453ZM102.073 273.437C103.738 272.456 105.883 273.01 106.865 274.675C107.846 276.34 107.292 278.486 105.626 279.467L78.7123 295.329C77.047 296.31 74.9017 295.755 73.9203 294.09C72.939 292.425 73.4934 290.28 75.1586 289.298L102.073 273.437ZM282.762 265.402C283.925 263.858 286.12 263.549 287.664 264.712L303.862 276.913C305.406 278.076 305.714 280.27 304.551 281.814C303.388 283.358 301.194 283.666 299.65 282.503L283.453 270.303C281.909 269.14 281.599 266.946 282.762 265.402ZM131.819 255.906C133.484 254.924 135.63 255.479 136.612 257.144C137.593 258.809 137.039 260.955 135.373 261.937L117.903 272.233C116.238 273.214 114.092 272.659 113.111 270.995C112.129 269.329 112.684 267.183 114.349 266.202L131.819 255.906ZM397.966 260.375C398.45 258.504 400.359 257.379 402.231 257.863L417.62 261.838C419.491 262.322 420.616 264.232 420.132 266.103C419.649 267.974 417.739 269.099 415.868 268.616L400.479 264.64C398.608 264.156 397.483 262.247 397.966 260.375ZM374.087 254.205C374.571 252.334 376.481 251.209 378.352 251.693L387.904 254.161C389.775 254.644 390.9 256.554 390.416 258.425C389.933 260.297 388.023 261.421 386.152 260.938L376.601 258.47C374.729 257.987 373.604 256.077 374.087 254.205ZM331.106 243.1C331.589 241.229 333.498 240.103 335.37 240.586L365.617 248.402C367.488 248.885 368.613 250.795 368.129 252.666C367.646 254.538 365.737 255.662 363.866 255.179L333.619 247.364C331.747 246.88 330.622 244.971 331.106 243.1ZM18.7514 236.182C20.6654 235.913 22.436 237.246 22.7055 239.16C22.9749 241.074 21.6411 242.844 19.727 243.114L3.9887 245.329C2.07457 245.599 0.304037 244.265 0.0345969 242.351C-0.234783 240.437 1.09822 238.666 3.01214 238.397L18.7514 236.182ZM297.675 234.462C298.159 232.591 300.068 231.465 301.94 231.949L321.574 237.022C323.445 237.506 324.57 239.415 324.086 241.287C323.603 243.158 321.693 244.283 319.822 243.799L300.188 238.726C298.317 238.242 297.192 236.334 297.675 234.462ZM43.1733 232.745C45.0874 232.475 46.8579 233.808 47.1274 235.722C47.3968 237.636 46.063 239.407 44.1489 239.676L34.3803 241.051C32.4662 241.321 30.6966 239.987 30.4272 238.073C30.1579 236.159 31.4907 234.389 33.4047 234.12L43.1733 232.745ZM87.1332 226.556C89.0472 226.287 90.8177 227.62 91.0873 229.534C91.3568 231.448 90.0237 233.218 88.1098 233.488L57.1742 237.842C55.2603 238.111 53.4907 236.778 53.2211 234.865C52.9517 232.951 54.2846 231.18 56.1987 230.911L87.1332 226.556ZM121.325 221.744C123.239 221.474 125.009 222.807 125.279 224.721C125.548 226.635 124.214 228.406 122.3 228.675L102.22 231.501C100.306 231.771 98.5356 230.438 98.266 228.524C97.9966 226.61 99.3304 224.839 101.245 224.57L121.325 221.744ZM322.671 193.39C324.585 193.121 326.356 194.454 326.625 196.368C326.895 198.282 325.561 200.052 323.647 200.322L303.567 203.148C301.653 203.417 299.882 202.084 299.613 200.17C299.343 198.256 300.677 196.486 302.591 196.216L322.671 193.39ZM367.717 187.049C369.631 186.78 371.401 188.113 371.67 190.027C371.94 191.941 370.607 193.711 368.693 193.981L337.757 198.335C335.843 198.605 334.074 197.271 333.804 195.357C333.535 193.443 334.868 191.673 336.782 191.404L367.717 187.049ZM100.805 183.605C101.289 181.734 103.198 180.609 105.07 181.092L124.703 186.165C126.574 186.649 127.7 188.558 127.216 190.429C126.733 192.301 124.823 193.426 122.952 192.943L103.318 187.87C101.446 187.386 100.322 185.476 100.805 183.605ZM390.511 183.84C392.425 183.571 394.195 184.905 394.464 186.819C394.734 188.733 393.401 190.502 391.487 190.772L381.718 192.147C379.804 192.416 378.034 191.083 377.764 189.169C377.495 187.255 378.828 185.485 380.742 185.215L390.511 183.84ZM420.903 179.562C422.817 179.292 424.587 180.626 424.857 182.54C425.126 184.454 423.792 186.224 421.878 186.494L406.14 188.709C404.226 188.979 402.456 187.646 402.186 185.732C401.917 183.818 403.25 182.047 405.164 181.778L420.903 179.562ZM56.7621 172.225C57.2457 170.354 59.1544 169.229 61.0258 169.712L91.2729 177.527C93.1443 178.01 94.2691 179.92 93.7856 181.791C93.302 183.663 91.3933 184.787 89.5219 184.304L59.2748 176.49C57.4033 176.006 56.2786 174.097 56.7621 172.225ZM34.475 166.466C34.9587 164.595 36.8682 163.47 38.7397 163.954L48.2905 166.421C50.162 166.905 51.2877 168.814 50.8041 170.686C50.3205 172.557 48.4109 173.682 46.5395 173.199L36.9877 170.731C35.1164 170.247 33.9915 168.338 34.475 166.466ZM306.989 152.659C308.654 151.677 310.799 152.232 311.781 153.897C312.762 155.562 312.208 157.708 310.542 158.69L293.073 168.986C291.407 169.967 289.261 169.413 288.28 167.747C287.298 166.082 287.853 163.936 289.518 162.954L306.989 152.659ZM4.75921 158.788C5.24278 156.917 7.15232 155.792 9.02385 156.276L24.4116 160.251C26.2831 160.735 27.4088 162.644 26.9252 164.516C26.4416 166.387 24.532 167.512 22.6606 167.029L7.2719 163.053C5.40051 162.569 4.27568 160.66 4.75921 158.788ZM120.34 143.078C121.503 141.534 123.698 141.224 125.242 142.387L141.439 154.588C142.983 155.751 143.292 157.946 142.129 159.49C140.966 161.034 138.772 161.342 137.228 160.179L121.03 147.979C119.486 146.816 119.177 144.622 120.34 143.078ZM346.178 129.563C347.843 128.581 349.99 129.136 350.971 130.801C351.952 132.466 351.398 134.612 349.733 135.593L322.819 151.454C321.154 152.436 319.008 151.881 318.027 150.216C317.045 148.551 317.6 146.406 319.265 145.424L346.178 129.563ZM276.913 121.03C278.076 119.486 280.27 119.177 281.814 120.34C283.358 121.503 283.666 123.698 282.503 125.242L270.303 141.439C269.14 142.983 266.946 143.292 265.402 142.129C263.858 140.966 263.549 138.772 264.712 137.228L276.913 121.03ZM84.0043 115.709C85.1673 114.165 87.3617 113.856 88.9057 115.019L113.859 133.814C115.403 134.977 115.712 137.171 114.549 138.715C113.386 140.259 111.192 140.568 109.648 139.406L84.6948 120.611C83.1508 119.448 82.8415 117.253 84.0043 115.709ZM153.897 113.111C155.562 112.129 157.708 112.684 158.69 114.349L168.986 131.819C169.967 133.484 169.413 135.63 167.747 136.612C166.082 137.593 163.936 137.039 162.955 135.373L152.659 117.903C151.677 116.238 152.232 114.092 153.897 113.111ZM366.01 117.875C367.675 116.894 369.821 117.448 370.802 119.114C371.783 120.779 371.229 122.924 369.564 123.906L361.065 128.914C359.4 129.896 357.254 129.341 356.273 127.676C355.291 126.011 355.846 123.866 357.511 122.884L366.01 117.875ZM237.022 103.318C237.506 101.446 239.415 100.322 241.287 100.805C243.158 101.289 244.283 103.198 243.799 105.07L238.726 124.703C238.242 126.574 236.334 127.7 234.462 127.216C232.591 126.733 231.465 124.823 231.949 122.952L237.022 103.318ZM196.368 98.266C198.282 97.9966 200.052 99.3304 200.322 101.245L203.148 121.325C203.417 123.239 202.084 125.009 200.17 125.279C198.256 125.548 196.486 124.214 196.216 122.3L193.39 102.22C193.121 100.306 194.454 98.5355 196.368 98.266ZM392.452 102.292C394.117 101.311 396.262 101.865 397.244 103.531C398.225 105.196 397.671 107.341 396.005 108.323L382.312 116.393C380.647 117.374 378.501 116.82 377.52 115.155C376.539 113.489 377.093 111.343 378.758 110.362L392.452 102.292ZM304.281 84.6938C305.444 83.15 307.638 82.8415 309.182 84.0043C310.726 85.1672 311.035 87.3617 309.872 88.9057L291.077 113.859C289.914 115.403 287.719 115.712 286.175 114.549C284.631 113.386 284.323 111.192 285.486 109.648L304.281 84.6938ZM65.6176 101.86C66.7806 100.316 68.975 100.007 70.519 101.17L78.3989 107.106C79.9428 108.269 80.2522 110.463 79.0893 112.007C77.9263 113.551 75.7319 113.859 74.1879 112.697L66.308 106.761C64.764 105.598 64.4546 103.404 65.6176 101.86ZM130.801 73.9203C132.466 72.9391 134.612 73.4934 135.593 75.1586L151.455 102.073C152.436 103.738 151.881 105.883 150.216 106.865C148.551 107.846 146.406 107.292 145.424 105.626L129.563 78.7123C128.582 77.047 129.136 74.9017 130.801 73.9203ZM41.102 83.3949C42.2649 81.851 44.4593 81.5417 46.0033 82.7045L58.6987 92.267C60.2426 93.4299 60.5519 95.6244 59.3891 97.1684C58.2262 98.7123 56.0317 99.0215 54.4877 97.8588L41.7924 88.2963C40.2485 87.1334 39.9392 84.9389 41.102 83.3949ZM248.402 59.2748C248.885 57.4033 250.795 56.2786 252.666 56.7621C254.538 57.2458 255.663 59.1544 255.179 61.0258L247.364 91.2729C246.88 93.1441 244.971 94.269 243.1 93.7856C241.229 93.302 240.103 91.3933 240.586 89.5219L248.402 59.2748ZM190.027 53.2211C191.941 52.9517 193.711 54.2846 193.981 56.1986L198.335 87.1332C198.605 89.0473 197.271 90.8179 195.357 91.0873C193.443 91.3565 191.673 90.0236 191.404 88.1098L187.049 57.1742C186.78 55.2603 188.113 53.4906 190.027 53.2211ZM318.13 66.308C319.293 64.764 321.488 64.4546 323.032 65.6176C324.575 66.7806 324.884 68.975 323.721 70.519L317.786 78.3988C316.623 79.9428 314.428 80.2522 312.884 79.0893C311.34 77.9263 311.032 75.7319 312.195 74.1879L318.13 66.308ZM119.114 54.0893C120.779 53.1079 122.924 53.6623 123.906 55.3275L128.914 63.8266C129.896 65.4919 129.342 67.6371 127.676 68.6186C126.011 69.6 123.866 69.0456 122.884 67.3803L117.875 58.8813C116.894 57.216 117.448 55.0707 119.114 54.0893ZM336.595 41.7924C337.758 40.2484 339.953 39.9391 341.497 41.102C343.04 42.2649 343.35 44.4593 342.187 46.0033L332.624 58.6986C331.462 60.2426 329.267 60.5518 327.723 59.3891C326.179 58.2261 325.87 56.0317 327.033 54.4877L336.595 41.7924ZM254.161 36.9877C254.644 35.1164 256.554 33.9915 258.425 34.475C260.296 34.9588 261.421 36.8683 260.938 38.7397L258.47 48.2904C257.987 50.162 256.077 51.2877 254.205 50.8041C252.334 50.3205 251.209 48.411 251.693 46.5395L254.161 36.9877ZM103.531 27.6479C105.196 26.6665 107.341 27.2209 108.323 28.8861L116.393 42.5785C117.374 44.2438 116.82 46.39 115.155 47.3715C113.489 48.3529 111.343 47.7985 110.362 46.1332L102.292 32.4398C101.311 30.7745 101.865 28.6293 103.531 27.6479ZM186.819 30.4272C188.733 30.1579 190.502 31.4907 190.772 33.4047L192.147 43.1732C192.416 45.0873 191.083 46.8578 189.169 47.1273C187.255 47.3968 185.485 46.063 185.215 44.1488L183.84 34.3803C183.571 32.4662 184.905 30.6966 186.819 30.4272ZM261.838 7.27188C262.322 5.40049 264.232 4.27563 266.103 4.75919C267.974 5.24281 269.099 7.15234 268.616 9.02383L264.64 24.4115C264.156 26.2831 262.247 27.4088 260.375 26.9252C258.504 26.4416 257.379 24.5321 257.863 22.6606L261.838 7.27188ZM182.54 0.0345759C184.454 -0.234717 186.224 1.0983 186.494 3.01212L188.709 18.7514C188.979 20.6654 187.646 22.4359 185.732 22.7055C183.818 22.9749 182.047 21.6411 181.778 19.727L179.562 3.98868C179.292 2.07455 180.626 0.304016 182.54 0.0345759Z" fill="#EB9C1A"/>
</svg>
